<svg width="52" height="52" viewBox="0 0 52 52" fill="none" xmlns="http://www.w3.org/2000/svg">
    <path d="M35.804 30.74h.677V7.885c0-.633-.514-1.143-1.142-1.143l-13.282-.08a.676.676 0 0 0-.477.194l-5.85 5.736a.671.671 0 0 0-.2.482V30.74c0 .634.52 1.143 1.148 1.143h18.66c.629 0 1.149-.51 1.149-1.143h-1.354.206v-.211a.21.21 0 0 0-.206.211h.206v-.211h-18.66v.211h.205a.21.21 0 0 0-.206-.211v.211h.206V13.362l5.45-5.346 13.005.076v-.211h-.206c0 .119.092.206.206.211v-.211h-.206v22.853h.677l-.006.005z" fill="#120046"/>
    <path d="M21.374 7.34v5.064h-4.945a.677.677 0 0 0 0 1.354h5.622a.66.66 0 0 0 .477-.2.681.681 0 0 0 .2-.477V7.339a.677.677 0 0 0-1.354 0z" fill="#120046"/>
    <path d="M20.578 16.868h10.628a.677.677 0 0 0 0-1.354H20.578a.677.677 0 0 0 0 1.354zM20.578 21.38h10.628a.677.677 0 0 0 0-1.355H20.578a.677.677 0 0 0 0 1.355zM20.578 25.891h10.628a.677.677 0 0 0 0-1.354H20.578a.677.677 0 0 0 0 1.354z" fill="#0074D2"/>
    <path d="M25.323 31.595v8.163a.677.677 0 0 0 1.354 0v-8.163a.677.677 0 0 0-1.354 0zM12.22 39.905l.022-12.123c0-.487.2-.92.525-1.246.33-.325.78-.52 1.284-.52h2.053a.677.677 0 0 0 0-1.354H14.05c-.867 0-1.663.347-2.232.91a3.094 3.094 0 0 0-.932 2.21l-.021 12.123a.677.677 0 0 0 1.354 0z" fill="#120046"/>
    <path d="M28.372 44.66v-.676H24.3v-3.396h3.396v4.073h1.354v-4.75a.66.66 0 0 0-.2-.477.682.682 0 0 0-.477-.2h-4.75a.66.66 0 0 0-.477.2.682.682 0 0 0-.2.477v4.75a.682.682 0 0 0 .677.677h4.75a.66.66 0 0 0 .477-.2.682.682 0 0 0 .2-.477h-.677zM13.9 44.66v-.676H9.825v-3.396h3.396v4.073h1.354v-4.75a.66.66 0 0 0-.2-.477.681.681 0 0 0-.477-.2H9.15a.66.66 0 0 0-.477.2.682.682 0 0 0-.2.477v4.75a.682.682 0 0 0 .677.677h4.75a.682.682 0 0 0 .677-.677H13.9zM35.945 25.827h1.999c.504 0 .953.2 1.284.52.33.325.525.758.525 1.246l.022 12.122a.677.677 0 0 0 1.354 0l-.022-12.122c0-.862-.357-1.647-.931-2.21a3.18 3.18 0 0 0-2.232-.91h-1.999a.677.677 0 0 0 0 1.354z" fill="#120046"/>
    <path d="M38.1 44.66v.678h4.751a.66.66 0 0 0 .477-.2.682.682 0 0 0 .2-.477v-4.75a.66.66 0 0 0-.2-.477.682.682 0 0 0-.477-.2h-4.75a.66.66 0 0 0-.477.2.682.682 0 0 0-.2.477v4.75a.682.682 0 0 0 .677.677v-.677h.677v-4.073h3.396v3.396h-4.073v.677z" fill="#120046"/>
</svg>
