<svg width="52" height="52" viewBox="0 0 52 52" fill="none" xmlns="http://www.w3.org/2000/svg">
    <path d="m9.084 25.069-.341.585a.759.759 0 0 1 .276 1.04.759.759 0 0 1-1.04.276.759.759 0 0 1-.276-1.04.759.759 0 0 1 1.04-.276l.336-.585.335-.585a2.13 2.13 0 0 0-1.056-.282 2.109 2.109 0 0 0-2.112 2.113 2.109 2.109 0 0 0 2.112 2.112 2.109 2.109 0 0 0 2.113-2.112c0-.732-.38-1.441-1.057-1.831l-.34.585h.01zM13.618 23.709a12.626 12.626 0 0 1 3.921-6.81.683.683 0 0 0 .054-.958.683.683 0 0 0-.958-.054 14.002 14.002 0 0 0-4.339 7.535.676.676 0 0 0 .526.801.676.676 0 0 0 .801-.525l-.005.01zM17.555 35.734a12.645 12.645 0 0 1-3.938-6.798.678.678 0 0 0-1.327.276 13.99 13.99 0 0 0 4.355 7.53.678.678 0 1 0 .905-1.013l.005.005zM29.938 38.333a12.687 12.687 0 0 1-3.954.629c-1.306 0-2.622-.2-3.906-.623a.68.68 0 0 0-.855.433.676.676 0 0 0 .433.856c1.419.466 2.876.688 4.322.688 1.49 0 2.969-.239 4.372-.699a.678.678 0 1 0-.423-1.29l.01.006zM38.382 28.909a12.626 12.626 0 0 1-3.921 6.809.683.683 0 0 0-.054.958c.249.282.677.304.958.054a14 14 0 0 0 4.339-7.534.676.676 0 0 0-.525-.802.676.676 0 0 0-.802.526l.005-.011zM34.439 16.89a12.61 12.61 0 0 1 3.938 6.797.678.678 0 0 0 1.327-.276 13.99 13.99 0 0 0-4.355-7.529.678.678 0 1 0-.905 1.013l-.005-.005zM22.062 14.29a12.68 12.68 0 0 1 3.949-.63c1.305 0 2.622.201 3.905.624a.68.68 0 0 0 .856-.434.68.68 0 0 0-.433-.855 13.837 13.837 0 0 0-4.323-.688c-1.49 0-2.968.238-4.371.698a.678.678 0 1 0 .422 1.29l-.005-.006z" fill="#1B2329"/>
    <path d="M9.907 26.986h5.184a.677.677 0 0 0 0-1.354H9.907a.677.677 0 0 0 0 1.354zM16.467 40.338l.341.585a.759.759 0 0 1 1.143.656.759.759 0 0 1-.758.764.759.759 0 0 1-.764-.759c0-.265.135-.52.379-.66l-.336-.586-.336-.585a2.115 2.115 0 0 0-.774 2.887 2.115 2.115 0 0 0 2.887.775 2.115 2.115 0 0 0 .774-2.887 2.115 2.115 0 0 0-2.887-.775l.342.585h-.011z" fill="#1B2329"/>
    <path d="m18.541 40.587 2.59-4.49a.676.676 0 0 0-.25-.927.676.676 0 0 0-.926.25l-2.59 4.49a.676.676 0 0 0 .25.926c.325.19.737.076.926-.25zM33.377 41.578h.677a.76.76 0 0 1 .759-.758.757.757 0 1 1-.758.758H32.7a2.112 2.112 0 1 0 4.225 0 2.112 2.112 0 1 0-4.225 0h.677z" fill="#1B2329"/>
    <path d="m34.634 39.91-2.589-4.49a.681.681 0 0 0-.926-.25.68.68 0 0 0-.25.927l2.59 4.49c.19.325.601.433.926.25a.68.68 0 0 0 .25-.927zM42.91 27.555l.337-.585a.759.759 0 0 1-.277-1.04.759.759 0 0 1 1.04-.277.759.759 0 0 1 .277 1.04.76.76 0 0 1-1.04.277l-.342.585-.34.585c.33.19.698.281 1.055.281a2.109 2.109 0 0 0 2.113-2.112 2.109 2.109 0 0 0-2.113-2.113 2.109 2.109 0 0 0-2.112 2.113c0 .731.379 1.44 1.056 1.83l.336-.584h.01z" fill="#1B2329"/>
    <path d="M42.093 25.632h-5.184a.677.677 0 0 0 0 1.354h5.184a.677.677 0 0 0 0-1.354zM35.533 12.285l-.341-.585a.759.759 0 0 1-1.143-.655.76.76 0 0 1 .758-.764.759.759 0 0 1 .764.758c0 .266-.135.52-.38.661l.342.585.336.585a2.115 2.115 0 0 0 .775-2.887 2.115 2.115 0 0 0-2.888-.775 2.115 2.115 0 0 0-.774 2.887 2.115 2.115 0 0 0 2.887.775l-.336-.585z" fill="#1B2329"/>
    <path d="m33.459 12.035-2.59 4.49a.676.676 0 0 0 .25.927c.325.19.737.076.926-.25l2.59-4.49a.676.676 0 0 0-.25-.926.676.676 0 0 0-.926.25zM18.623 11.04h-.678a.757.757 0 1 1-1.517 0 .757.757 0 1 1 1.517 0H19.3a2.112 2.112 0 1 0-4.225 0 2.112 2.112 0 1 0 4.225 0h-.677z" fill="#1B2329"/>
    <path d="m17.366 12.713 2.589 4.49a.68.68 0 0 0 .926.25.68.68 0 0 0 .25-.927l-2.59-4.49a.68.68 0 0 0-.926-.25.68.68 0 0 0-.25.927z" fill="#1B2329"/>
    <path d="M33.534 20.317h-.677.103l-.097-.038v.038h.097l-.097-.038s-.049.076-.146.152c-.163.13-.477.293-.889.439-1.251.45-3.407.77-5.828.77-2.031 0-3.873-.223-5.157-.564-.639-.168-1.143-.374-1.43-.553a.917.917 0 0 1-.26-.216l-.016-.022-.114.032h.12v-.032l-.114.032h.119-.103l.097.038v-.038h-.097l.097.038s.05-.076.147-.151c.162-.13.476-.293.888-.44 1.251-.449 3.407-.768 5.828-.768 2.032 0 3.873.222 5.157.563.64.168 1.143.374 1.43.553a.917.917 0 0 1 .26.216l.016.022.114-.033h-.12v.033l.12-.033h-.12 1.355c0-.314-.125-.6-.293-.817-.297-.38-.704-.618-1.202-.84-.748-.325-1.717-.569-2.86-.748a26.027 26.027 0 0 0-3.851-.27c-2.13 0-4.057.227-5.504.606-.726.195-1.327.423-1.798.715-.238.152-.444.32-.617.537a1.32 1.32 0 0 0-.293.817c0 .315.125.602.293.818.297.38.704.618 1.202.84.747.325 1.717.569 2.86.747 1.143.174 2.454.271 3.851.271 2.129 0 4.057-.227 5.504-.606.725-.195 1.327-.423 1.798-.715a2.45 2.45 0 0 0 .617-.537 1.32 1.32 0 0 0 .293-.818h-.683z" fill="#0074D2"/>
    <path d="M32.858 20.318v3.992h.103l-.098-.038v.038h.098l-.098-.038s-.049.076-.146.152c-.163.13-.477.292-.888.438-1.252.45-3.407.77-5.829.77-2.031 0-3.873-.223-5.156-.564-.64-.168-1.143-.374-1.43-.552a.92.92 0 0 1-.26-.217l-.017-.022-.113.033h.119v-.033l-.12.033h.12v-3.992a.677.677 0 0 0-1.354 0v3.992c0 .314.124.601.292.818.298.379.704.617 1.203.84.747.324 1.717.568 2.86.747 1.143.173 2.453.27 3.85.27 2.13 0 4.058-.227 5.504-.606.726-.195 1.327-.423 1.799-.715.238-.152.444-.32.617-.536.168-.217.298-.504.292-.818v-3.992a.677.677 0 0 0-1.354 0h.006z" fill="#0074D2"/>
    <path d="m32.608 25.692.174-.314-.179.308h.005l.174-.308-.179.308.016.011a.95.95 0 0 1 .174.152c.054.07.07.113.07.151v2.308h.103l-.098-.038v.038h.098l-.098-.038s-.048.076-.146.152c-.162.13-.476.292-.888.438-1.251.45-3.407.77-5.823.77-2.031 0-3.873-.223-5.157-.564-.639-.168-1.143-.373-1.43-.552a.917.917 0 0 1-.26-.217l-.016-.022-.114.033h.12v-.033l-.114.033h.119V26l.022-.08a.579.579 0 0 1 .146-.169l.07-.054.017-.01-.114-.19.103.19h.005l-.114-.19.103.19a.678.678 0 1 0-.65-1.192c-.038.021-.238.13-.46.357-.114.114-.228.26-.325.45-.098.19-.168.428-.168.688v2.307c0 .314.125.601.292.818.298.38.705.618 1.203.84.747.325 1.717.568 2.86.747a26.03 26.03 0 0 0 3.851.27c2.129 0 4.057-.227 5.503-.606.726-.195 1.328-.422 1.799-.715a2.45 2.45 0 0 0 .617-.536c.168-.217.298-.504.293-.818V25.99c0-.26-.07-.499-.168-.688a1.93 1.93 0 0 0-.488-.602c-.151-.124-.27-.195-.297-.21a.678.678 0 1 0-.65 1.192v.01z" fill="#0074D2"/>
    <path d="m32.608 29.683.174-.314-.179.314h.005l.174-.314-.179.314.016.011c.033.022.12.087.174.152.054.07.07.114.07.151v2.308h.103l-.098-.038v.038h.098l-.098-.038s-.048.076-.146.152c-.162.13-.476.292-.888.439-1.251.45-3.407.769-5.823.769-2.031 0-3.873-.222-5.157-.564-.639-.168-1.143-.373-1.43-.552a.916.916 0 0 1-.26-.217l-.016-.021-.114.032h.12v-.032l-.114.032h.119v-2.308l.022-.08a.58.58 0 0 1 .146-.169l.07-.054.017-.01-.114-.19.103.19h.005l-.114-.19.103.19a.678.678 0 1 0-.65-1.192c-.038.021-.238.13-.46.357a1.78 1.78 0 0 0-.325.45c-.098.19-.168.428-.168.688v2.307c0 .314.125.601.292.818.298.38.705.618 1.203.84.747.325 1.717.568 2.86.747A26.03 26.03 0 0 0 26 34.97c2.129 0 4.057-.227 5.503-.607.726-.195 1.328-.422 1.799-.715.238-.151.444-.32.617-.536a1.32 1.32 0 0 0 .293-.818v-2.307c0-.26-.07-.499-.168-.688a1.93 1.93 0 0 0-.488-.601c-.151-.125-.27-.195-.297-.212a.678.678 0 1 0-.65 1.192v.005z" fill="#0074D2"/>
</svg>
