<svg width="52" height="52" viewBox="0 0 52 52" fill="none" xmlns="http://www.w3.org/2000/svg">
    <path d="M40.132 17.09h-.677v23.4a3.904 3.904 0 0 1-1.154 2.778 3.904 3.904 0 0 1-2.779 1.154H16.098a3.917 3.917 0 0 1-2.784-1.154 3.904 3.904 0 0 1-1.154-2.779v-23.4c0-1.088.44-2.063 1.154-2.778a3.917 3.917 0 0 1 2.784-1.154h.428v1.706c0 1.17.948 2.118 2.123 2.123h14.322a2.112 2.112 0 0 0 2.118-2.123v-1.706h.433c1.09 0 2.064.439 2.78 1.154a3.904 3.904 0 0 1 1.153 2.778h1.354a5.29 5.29 0 0 0-5.287-5.286h-1.787v3.06c0 .423-.341.77-.77.77h-14.32a.762.762 0 0 1-.543-.228.762.762 0 0 1-.227-.542v-3.06h-1.782a5.295 5.295 0 0 0-5.292 5.286v23.4a5.292 5.292 0 0 0 5.292 5.287h19.424a5.29 5.29 0 0 0 5.287-5.287v-23.4h-.677.005z" fill="#120046"/>
    <path d="M32.971 10.259v-.677h-1.213c-.536 0-1.046-.282-1.365-.759-.444-.671-1.105-1.208-1.896-1.581a6.307 6.307 0 0 0-2.692-.58c-.98 0-1.901.211-2.692.58-.791.373-1.452.91-1.896 1.581-.32.477-.818.759-1.365.759h-1.213c-1.17 0-2.118.948-2.124 2.123v3.163c0 1.17.948 2.118 2.124 2.124H32.96c.585 0 1.122-.239 1.5-.623.385-.385.618-.916.618-1.5v-3.164c0-.58-.238-1.116-.617-1.5a2.107 2.107 0 0 0-1.5-.623v1.354c.427 0 .769.341.769.769v3.163c0 .423-.342.77-.77.77H18.64a.762.762 0 0 1-.542-.228.762.762 0 0 1-.228-.542v-3.163c0-.211.087-.4.228-.542.14-.14.33-.227.542-.227h1.213a2.994 2.994 0 0 0 2.492-1.365c.281-.428.747-.823 1.343-1.105a4.969 4.969 0 0 1 2.112-.45c.786 0 1.517.168 2.113.45.601.282 1.062.677 1.338 1.1.547.834 1.473 1.37 2.492 1.37h1.213v-.677h.016zm-7.16-.401v.677c.113 0 .189.081.194.195 0 .103-.08.184-.195.19a.188.188 0 0 1-.19-.19c0-.114.087-.19.19-.195V9.181c-.422 0-.812.173-1.088.455-.277.276-.45.671-.45 1.094 0 .85.688 1.544 1.544 1.544.422 0 .818-.174 1.094-.45.282-.276.455-.666.455-1.089 0-.422-.173-.817-.45-1.094a1.513 1.513 0 0 0-1.094-.45v.678l-.01-.011z" fill="#120046"/>
    <path d="M26.677 10.73H26c0 .103-.081.185-.195.19a.188.188 0 0 1-.19-.19c0-.113.087-.19.19-.195.114 0 .19.082.195.195h1.354c0-.422-.173-.818-.45-1.094a1.512 1.512 0 0 0-1.094-.45c-.422 0-.812.174-1.088.456-.277.276-.45.671-.45 1.094 0 .85.688 1.544 1.544 1.544.422 0 .818-.174 1.094-.45.282-.276.455-.666.455-1.089h-.677l-.011-.01z" fill="#120046"/>
    <path d="M26.677 10.73a.867.867 0 0 1-.872.867.859.859 0 0 1-.867-.867c0-.482.385-.872.867-.872s.872.385.872.872zM22.89 25.485v1.527c0 .25-.2.45-.449.45H17.42c-.25 0-.45-.2-.45-.45v-5.02c0-.25.2-.45.45-.45h4.133a.677.677 0 0 0 0-1.355H17.42c-.997 0-1.804.808-1.804 1.804v5.021c0 .997.807 1.804 1.804 1.804h5.021c.997 0 1.804-.807 1.804-1.803v-1.528a.677.677 0 0 0-1.354 0z" fill="#120046"/>
    <path d="m18.064 24.152 1.674 1.658a.68.68 0 0 0 .954 0l5.15-5.151a.677.677 0 1 0-.959-.959l-4.674 4.675-1.191-1.181a.682.682 0 0 0-.959 0 .682.682 0 0 0 0 .959h.005zM27.69 23.811h7.637a.677.677 0 0 0 0-1.354H27.69a.677.677 0 0 0 0 1.354zM27.69 26.542h4.68a.677.677 0 0 0 0-1.355h-4.68a.677.677 0 0 0 0 1.355zM27.69 34.824h7.637a.677.677 0 0 0 0-1.354H27.69a.677.677 0 0 0 0 1.354zM27.69 37.553h4.68a.677.677 0 0 0 0-1.354h-4.68a.677.677 0 0 0 0 1.354z" fill="#0074D2"/>
    <path d="M22.89 36.839v1.527c0 .25-.2.45-.449.45H17.42c-.25 0-.45-.2-.45-.45v-5.021c0-.25.2-.45.45-.45h4.133a.677.677 0 0 0 0-1.354H17.42c-.997 0-1.804.807-1.804 1.804v5.021c0 .997.807 1.804 1.804 1.804h5.021c.997 0 1.804-.807 1.804-1.804v-1.527a.677.677 0 0 0-1.354 0z" fill="#120046"/>
    <path d="m18.064 35.506 1.674 1.658a.68.68 0 0 0 .954 0l5.15-5.152a.677.677 0 0 0 0-.958.677.677 0 0 0-.958 0l-4.675 4.674-1.191-1.18a.682.682 0 0 0-.959 0 .682.682 0 0 0 0 .958h.005z" fill="#0074D2"/>
</svg>
